<svg width="24" height="24" viewBox="0 0 24 24" fill="none" xmlns="http://www.w3.org/2000/svg">
<path d="M18.7521 10.4035V14.7964C18.7521 15.0819 18.7408 15.3565 18.707 15.6201C18.4479 18.5852 16.6567 20.0568 13.356 20.0568H12.9054C12.6237 20.0568 12.3533 20.1886 12.1844 20.4083L10.8325 22.1654C10.2355 22.9451 9.26664 22.9451 8.66957 22.1654L7.31771 20.4083C7.17126 20.2216 6.84458 20.0568 6.59674 20.0568H6.14613C2.55247 20.0568 0.75 19.1893 0.75 14.7964V10.4035C0.75 7.18576 2.27084 5.43959 5.30123 5.187C5.5716 5.15406 5.85323 5.14307 6.14613 5.14307H13.356C16.9496 5.14307 18.7521 6.90022 18.7521 10.4035Z" stroke="#041C84" stroke-width="1.5" stroke-miterlimit="10" stroke-linecap="round" stroke-linejoin="round"/>
<path d="M23.2583 6.01046V10.4033C23.2583 13.6321 21.7375 15.3673 18.7071 15.6199C18.7409 15.3563 18.7522 15.0817 18.7522 14.7962V10.4033C18.7522 6.90002 16.9497 5.14286 13.356 5.14286H6.14617C5.85327 5.14286 5.57164 5.15386 5.30127 5.1868C5.56037 2.2326 7.35157 0.75 10.6523 0.75H17.8622C21.4558 0.75 23.2583 2.50716 23.2583 6.01046Z" stroke="#041C84" stroke-width="1.5" stroke-miterlimit="10" stroke-linecap="round" stroke-linejoin="round"/>
<path d="M13.7003 13.1048H13.7104" stroke="#041C84" stroke-width="1.5" stroke-linecap="round" stroke-linejoin="round"/>
<path d="M9.7573 13.1048H9.76744" stroke="#041C84" stroke-width="1.5" stroke-linecap="round" stroke-linejoin="round"/>
<path d="M5.81443 13.1048H5.82456" stroke="#041C84" stroke-width="1.5" stroke-linecap="round" stroke-linejoin="round"/>
</svg>
