<svg width="14" height="14" viewBox="0 0 14 14" fill="none" xmlns="http://www.w3.org/2000/svg">
<path d="M3.63511 10.35H2.06979C1.19199 10.35 0.75 9.91798 0.75 9.05998V2.04001C0.75 1.18201 1.19199 0.75 2.06979 0.75H4.70935C5.58715 0.75 6.0291 1.18201 6.0291 2.04001V3.15" stroke="#52575C" stroke-width="1.5" stroke-miterlimit="10" stroke-linecap="round" stroke-linejoin="round"/>
<path d="M10.1843 4.60189V11.2979C10.1843 12.2639 9.69324 12.7499 8.70494 12.7499H5.12003C4.13173 12.7499 3.63452 12.2639 3.63452 11.2979V4.60189C3.63452 3.63589 4.13173 3.1499 5.12003 3.1499H8.70494C9.69324 3.1499 10.1843 3.63589 10.1843 4.60189Z" stroke="#52575C" stroke-width="1.5" stroke-miterlimit="10" stroke-linecap="round" stroke-linejoin="round"/>
<path d="M7.74805 3.15V2.04001C7.74805 1.18201 8.19 0.75 9.0678 0.75H11.7074C12.5852 0.75 13.0271 1.18201 13.0271 2.04001V9.05998C13.0271 9.91798 12.5852 10.35 11.7074 10.35H10.185" stroke="#52575C" stroke-width="1.5" stroke-miterlimit="10" stroke-linecap="round" stroke-linejoin="round"/>
<path d="M5.66089 6.1499H8.11629" stroke="#52575C" stroke-width="1.5" stroke-miterlimit="10" stroke-linecap="round" stroke-linejoin="round"/>
<path d="M5.66089 7.9502H8.11629" stroke="#52575C" stroke-width="1.5" stroke-miterlimit="10" stroke-linecap="round" stroke-linejoin="round"/>
<path d="M6.88843 12.7502V10.9502" stroke="#52575C" stroke-width="1.5" stroke-miterlimit="10" stroke-linecap="round" stroke-linejoin="round"/>
</svg>
