<svg width="24" height="24" viewBox="0 0 24 24" fill="none" xmlns="http://www.w3.org/2000/svg">
<path d="M6.26453 21.21C7.95266 22.2 9.9784 22.75 12.0042 22.75C18.1939 22.75 23.2583 17.8 23.2583 11.75C23.2583 5.7 18.1939 0.75 12.0042 0.75C5.81437 0.75 0.75 5.7 0.75 11.75C0.75 13.73 1.31271 15.6 2.21304 17.25L1.19977 21.0592C1.00088 21.8069 1.68997 22.4875 2.43513 22.2794L6.26453 21.21Z" stroke="#868F97" stroke-width="1.5" stroke-miterlimit="10" stroke-linecap="round" stroke-linejoin="round"/>
<path d="M17.0687 14.8832C17.0687 15.0614 17.0281 15.2445 16.9419 15.4227C16.8557 15.6009 16.7441 15.7692 16.597 15.9276C16.3485 16.1949 16.0746 16.388 15.7652 16.5117C15.4609 16.6355 15.1312 16.6998 14.7761 16.6998C14.2588 16.6998 13.706 16.581 13.1227 16.3385C12.5394 16.0959 11.9561 15.7692 11.3779 15.3584C10.7946 14.9426 10.2418 14.4822 9.71431 13.9724C9.1919 13.4576 8.72021 12.918 8.29923 12.3537C7.88333 11.7894 7.54858 11.2251 7.30512 10.6658C7.06167 10.1015 6.93994 9.5619 6.93994 9.0471C6.93994 8.7105 7.00081 8.38875 7.12253 8.09175C7.24426 7.7898 7.437 7.5126 7.70581 7.2651C8.03042 6.95325 8.38545 6.7998 8.76078 6.7998C8.9028 6.7998 9.04481 6.8295 9.17161 6.8889C9.30348 6.9483 9.42014 7.0374 9.51143 7.1661L10.6881 8.78475C10.7794 8.9085 10.8454 9.02235 10.891 9.13125C10.9367 9.2352 10.962 9.33915 10.962 9.4332C10.962 9.552 10.9265 9.6708 10.8555 9.78465C10.7896 9.8985 10.6932 10.0173 10.5715 10.1361L10.186 10.5272C10.1302 10.5816 10.1049 10.646 10.1049 10.7252C10.1049 10.7648 10.1099 10.7994 10.1201 10.839C10.1353 10.8786 10.1505 10.9083 10.1606 10.938C10.2519 11.1014 10.4092 11.3142 10.6323 11.5716C10.8606 11.829 11.104 12.0914 11.3678 12.3537C11.6417 12.6161 11.9054 12.8586 12.1742 13.0814C12.438 13.2992 12.6561 13.4477 12.8285 13.5368C12.8539 13.5467 12.8843 13.5615 12.9198 13.5764C12.9604 13.5912 13.001 13.5962 13.0466 13.5962C13.1328 13.5962 13.1988 13.5665 13.2546 13.512L13.64 13.1408C13.7668 13.017 13.8885 12.923 14.0052 12.8636C14.1219 12.7943 14.2385 12.7596 14.3653 12.7596C14.4617 12.7596 14.5631 12.7794 14.6747 12.824C14.7863 12.8685 14.9029 12.9329 15.0297 13.017L16.7086 14.1803C16.8404 14.2694 16.9317 14.3733 16.9875 14.4971C17.0382 14.6208 17.0687 14.7446 17.0687 14.8832Z" stroke="#868F97" stroke-width="1.5" stroke-miterlimit="10"/>
</svg>
