<svg width="25" height="24" viewBox="0 0 25 24" fill="none" xmlns="http://www.w3.org/2000/svg">
<path d="M16.668 12.9941L16.748 13.0098L17.2715 13.1475C17.4456 13.1971 17.6198 13.2498 17.793 13.3066L18.4238 13.5137V13.5068L18.4863 13.5342L18.9297 13.6807L18.875 13.708L19.1494 13.8311C20.4372 14.4069 21.6346 15.176 22.5176 16.0684C23.3952 16.9553 24.0087 18.0135 24.0088 19.1572V23.25H0.5V19.1572L0.507812 18.9346C0.584741 17.8265 1.22671 16.8055 2.11035 15.9502C3.05976 15.0312 4.34145 14.2487 5.7041 13.6826L6.38379 13.4004L6.39648 14.1357C6.40325 14.5259 6.4385 14.9742 6.49023 15.4131C6.54609 15.8866 6.62106 16.3549 6.70312 16.7344C6.7206 16.8152 6.7394 16.8931 6.75781 16.9668L6.84375 17.3125L6.54492 17.5068C6.15077 17.7629 5.87704 18.2322 5.87695 18.7803C5.87695 19.6273 6.51859 20.2654 7.25195 20.2656C7.98546 20.2656 8.62793 19.6275 8.62793 18.7803C8.62781 18.0034 8.08361 17.398 7.42871 17.3076L7.09863 17.2617L7.01367 16.9395C6.99099 16.8534 6.9683 16.7566 6.94531 16.6504C6.90583 16.4678 6.86721 16.2625 6.83203 16.0449L6.7373 15.3662C6.68257 14.9022 6.64784 14.4339 6.64551 14.0439V14.043C6.64467 13.9 6.64817 13.7705 6.65625 13.6572L6.68066 13.3135L7.00977 13.2139C7.25936 13.1381 7.51043 13.0701 7.76074 13.0098L7.90918 12.9873C8.24254 12.9695 8.47868 13.1747 8.60449 13.3291C8.68973 13.4337 8.75907 13.5571 8.81445 13.665H15.5615C15.6341 13.5558 15.7205 13.4435 15.8184 13.3438C15.9675 13.1919 16.2731 12.939 16.668 12.9941ZM18.1816 14.0635C18.1881 14.1461 18.1928 14.2354 18.1953 14.3301C18.2049 14.6888 18.186 15.1152 18.1475 15.5371C18.1088 15.9588 18.0511 16.3722 17.9844 16.7051C17.9695 16.7794 17.9546 16.8488 17.9395 16.9121L17.8477 17.2959H16.6309C16.5988 17.2959 16.5517 17.3152 16.5234 17.375L15.8984 18.6982C15.8871 18.7222 15.8799 18.7506 15.8799 18.7803V20.1035C15.8799 20.2199 15.963 20.2656 16.0059 20.2656C16.1625 20.2657 16.3173 20.3041 16.4219 20.3311C16.5484 20.3637 16.6317 20.3882 16.7246 20.4062C16.8119 20.4231 16.8606 20.4228 16.8857 20.4189C16.8993 20.4168 16.8986 20.4159 16.9023 20.4121C16.9869 20.3275 17.0542 20.1746 17.0605 20.0312C17.0635 19.9643 17.0527 19.9223 17.0439 19.9033C17.042 19.8991 17.0384 19.8975 17.0371 19.8955C17.0346 19.8952 17.0316 19.8948 17.0283 19.8945C16.9988 19.8923 16.9595 19.8936 16.9141 19.8984C16.8699 19.9031 16.8288 19.9098 16.7988 19.916C16.7844 19.919 16.7734 19.9222 16.7666 19.9238C16.7633 19.9246 16.7606 19.9246 16.7598 19.9248L16.1309 20.0957V18.8242L16.1787 18.7236L16.5654 17.9053L16.7002 17.6191H19.0625L19.1973 17.9053L19.584 18.7236L19.6318 18.8242V20.0957L19.0029 19.9248C19.0021 19.9246 18.9994 19.9246 18.9961 19.9238C18.9894 19.9222 18.9784 19.919 18.9639 19.916C18.9339 19.9098 18.8927 19.9031 18.8486 19.8984C18.8033 19.8936 18.7638 19.8924 18.7344 19.8945C18.7308 19.8948 18.7273 19.8952 18.7246 19.8955C18.7233 19.8974 18.7206 19.8994 18.7188 19.9033C18.7099 19.9223 18.6982 19.9643 18.7012 20.0312C18.7075 20.1746 18.7758 20.3275 18.8604 20.4121C18.864 20.4158 18.8633 20.4168 18.877 20.4189C18.9021 20.4228 18.9507 20.4232 19.0381 20.4062C19.1309 20.3882 19.2135 20.3636 19.3398 20.3311C19.4444 20.3041 19.6 20.2656 19.7568 20.2656C19.7997 20.2656 19.8818 20.2199 19.8818 20.1035V18.7803C19.8818 18.7506 19.8756 18.7222 19.8643 18.6982L19.2393 17.375C19.211 17.3153 19.1639 17.296 19.1318 17.2959H18.1309L18.2432 16.7021C18.3064 16.3682 18.36 15.9726 18.3965 15.5732C18.4361 15.141 18.4563 14.6989 18.4463 14.3203L18.4453 14.3018L18.4346 13.9336L18.1816 14.0635ZM7.25195 17.6094C7.88892 17.6094 8.37779 18.1493 8.37793 18.7803C8.37793 19.4114 7.88901 19.9521 7.25195 19.9521C6.61507 19.9519 6.12695 19.4113 6.12695 18.7803C6.12709 18.1494 6.61516 17.6096 7.25195 17.6094Z" stroke="#0869EA"/>
<path d="M12.2542 10.0132C14.7404 10.0132 16.7558 7.93953 16.7558 5.38158C16.7558 2.82363 14.7404 0.75 12.2542 0.75C9.76796 0.75 7.7525 2.82363 7.7525 5.38158C7.7525 7.93953 9.76796 10.0132 12.2542 10.0132Z" stroke="#0869EA" stroke-width="1.5" stroke-linecap="round" stroke-linejoin="round"/>
</svg>
