<svg width="22" height="24" viewBox="0 0 22 24" fill="none" xmlns="http://www.w3.org/2000/svg">
<path d="M7.92261 14.7207L9.62778 16.3707L14.1749 11.9707" stroke="#041C84" stroke-width="1.5" stroke-linecap="round" stroke-linejoin="round"/>
<path d="M8.7075 5.15H13.2546C15.5282 5.15 15.5282 4.05 15.5282 2.95C15.5282 0.75 14.3914 0.75 13.2546 0.75H8.7075C7.57071 0.75 6.43393 0.75 6.43393 2.95C6.43393 5.15 7.57071 5.15 8.7075 5.15Z" stroke="#041C84" stroke-width="1.5" stroke-miterlimit="10" stroke-linecap="round" stroke-linejoin="round"/>
<path d="M15.5282 2.97168C19.3137 3.16968 21.2121 4.52268 21.2121 9.54968V16.1497C21.2121 20.5497 20.0753 22.7497 14.3914 22.7497H7.5707C1.88678 22.7497 0.75 20.5497 0.75 16.1497V9.54968C0.75 4.53368 2.64843 3.16968 6.43392 2.97168" stroke="#041C84" stroke-width="1.5" stroke-miterlimit="10" stroke-linecap="round" stroke-linejoin="round"/>
</svg>
