<svg width="12" height="14" viewBox="0 0 12 14" fill="none" xmlns="http://www.w3.org/2000/svg">
<path d="M4.33643 8.37061L5.18901 9.27061L7.46258 6.87061" stroke="#F9F9FA" stroke-width="1.5" stroke-linecap="round" stroke-linejoin="round"/>
<path d="M4.72882 3.15049H7.00239C8.13917 3.15049 8.13917 2.55049 8.13917 1.95049C8.13917 0.750488 7.57078 0.750488 7.00239 0.750488H4.72882C4.16043 0.750488 3.59204 0.750488 3.59204 1.95049C3.59204 3.15049 4.16043 3.15049 4.72882 3.15049Z" stroke="#F9F9FA" stroke-width="1.5" stroke-miterlimit="10" stroke-linecap="round" stroke-linejoin="round"/>
<path d="M8.13909 1.9624C10.0318 2.0704 10.981 2.8084 10.981 5.5504V9.15041C10.981 11.5504 10.4127 12.7504 7.5707 12.7504H4.16035C1.31839 12.7504 0.75 11.5504 0.75 9.15041V5.5504C0.75 2.8144 1.69921 2.0704 3.59196 1.9624" stroke="#F9F9FA" stroke-width="1.5" stroke-miterlimit="10" stroke-linecap="round" stroke-linejoin="round"/>
</svg>
