<svg width="25" height="24" viewBox="0 0 25 24" fill="none" xmlns="http://www.w3.org/2000/svg">
<path d="M13.95 2.3386L15.9306 6.24216C16.2006 6.78556 16.9208 7.30677 17.5285 7.40658L21.1181 7.99433C23.4137 8.37138 23.9539 10.0127 22.2997 11.6317L19.509 14.382C19.0364 14.8478 18.7775 15.746 18.9238 16.3892L19.7228 19.7937C20.353 22.4885 18.9013 23.531 16.482 22.1226L13.1173 20.1597C12.5097 19.8048 11.5082 19.8048 10.8893 20.1597L7.52464 22.1226C5.11651 23.531 3.65364 22.4774 4.2838 19.7937L5.08276 16.3892C5.22904 15.746 4.97023 14.8478 4.4976 14.382L1.70688 11.6317C0.0639582 10.0127 0.592845 8.37138 2.88844 7.99433L6.47812 7.40658C7.07452 7.30677 7.79471 6.78556 8.06478 6.24216L10.0453 2.3386C11.1256 0.220468 12.881 0.220468 13.95 2.3386Z" stroke="#041C84" stroke-width="1.5" stroke-linecap="round" stroke-linejoin="round"/>
</svg>
