<svg width="24" height="24" viewBox="0 0 24 24" fill="none" xmlns="http://www.w3.org/2000/svg">
<path d="M22.2266 10.1893L21.1478 15.1595C20.2232 19.4519 18.396 21.1879 14.9617 20.8312C14.4113 20.7837 13.8169 20.6766 13.1785 20.5102L11.3292 20.0346C6.73915 18.8574 5.31919 16.408 6.39792 11.4378L7.47664 6.45568C7.69679 5.44499 7.96097 4.5651 8.29119 3.83978C9.57906 0.962296 11.7695 0.189417 15.446 1.12876L17.2842 1.59249C21.8963 2.75775 23.3053 5.21907 22.2266 10.1893Z" stroke="#868F97" stroke-width="1.5" stroke-linecap="round" stroke-linejoin="round"/>
<path d="M15.1411 20.7414C14.4586 21.2408 13.6001 21.657 12.5544 22.0256L10.8152 22.6439C6.44525 24.1659 4.1447 22.8936 2.72474 18.1731L1.31579 13.4764C-0.0931528 8.75588 1.07363 6.25888 5.44357 4.73691L7.18274 4.1186C7.63404 3.96403 8.06333 3.83323 8.47061 3.75C8.14039 4.47532 7.87621 5.35521 7.65606 6.3659L6.57733 11.348C5.49861 16.3182 6.91856 18.7676 11.5087 19.9448L13.3579 20.4204C13.9963 20.5869 14.5907 20.6939 15.1411 20.7414Z" stroke="#868F97" stroke-width="1.5" stroke-linecap="round" stroke-linejoin="round"/>
<path d="M12.2978 7.32568L17.6364 8.78821" stroke="#868F97" stroke-width="1.5" stroke-linecap="round" stroke-linejoin="round"/>
<path d="M11.2191 11.9272L14.4113 12.8071" stroke="#868F97" stroke-width="1.5" stroke-linecap="round" stroke-linejoin="round"/>
</svg>
