<svg width="25" height="24" viewBox="0 0 25 24" fill="none" xmlns="http://www.w3.org/2000/svg">
<path d="M19.8675 8.50876C19.8675 10.1159 19.3846 11.5901 18.5535 12.8204C17.3405 14.5939 15.42 15.8463 13.185 16.1678C12.8032 16.2343 12.4101 16.2675 12.0058 16.2675C11.6014 16.2675 11.2084 16.2343 10.8265 16.1678C8.59153 15.8463 6.67103 14.5939 5.45807 12.8204C4.62698 11.5901 4.14404 10.1159 4.14404 8.50876C4.14404 4.21927 7.65936 0.75 12.0058 0.75C16.3522 0.75 19.8675 4.21927 19.8675 8.50876Z" stroke="#F2790F" stroke-width="1.5" stroke-linecap="round" stroke-linejoin="round"/>
<path d="M22.3943 19.0053L20.5412 19.4376C20.1257 19.5373 19.8 19.8477 19.7101 20.2578L19.317 21.8871C19.1036 22.7739 17.9581 23.0399 17.3628 22.3416L12.0056 16.2676L6.64842 22.3526C6.05317 23.0509 4.9076 22.7849 4.69422 21.8982L4.30113 20.2689C4.20005 19.8588 3.87435 19.5373 3.47003 19.4487L1.61691 19.0164C0.763355 18.8169 0.460117 17.7639 1.07782 17.1543L5.45793 12.8315C6.67088 14.605 8.59138 15.8575 10.8264 16.1789C11.2082 16.2454 11.6013 16.2787 12.0056 16.2787C12.4099 16.2787 12.803 16.2454 13.1849 16.1789C15.4199 15.8575 17.3404 14.605 18.5533 12.8315L22.9334 17.1543C23.5511 17.7528 23.2479 18.8058 22.3943 19.0053Z" stroke="#F2790F" stroke-width="1.5" stroke-linecap="round" stroke-linejoin="round"/>
<path d="M12.657 5.16142L13.3197 6.46932C13.4095 6.64666 13.6454 6.82401 13.8588 6.85726L15.0605 7.05677C15.8242 7.17869 16.0039 7.73289 15.4536 8.27601L14.5214 9.19596C14.3642 9.35113 14.2743 9.65042 14.3305 9.8721L14.6 11.0137C14.8134 11.9115 14.3305 12.2662 13.5218 11.7896L12.3987 11.1356C12.1966 11.0137 11.8596 11.0137 11.6575 11.1356L10.5344 11.7896C9.72575 12.2551 9.24281 11.9115 9.4562 11.0137L9.72575 9.8721C9.77067 9.6615 9.69205 9.35113 9.53482 9.19596L8.60264 8.27601C8.05232 7.73289 8.23202 7.18977 8.99573 7.05677L10.1974 6.85726C10.3996 6.82401 10.6355 6.64666 10.7253 6.46932L11.3879 5.16142C11.7136 4.45205 12.2977 4.45205 12.657 5.16142Z" stroke="#F2790F" stroke-width="1.5" stroke-linecap="round" stroke-linejoin="round"/>
</svg>
