<svg width="24" height="24" viewBox="0 0 24 24" fill="none" xmlns="http://www.w3.org/2000/svg">
<path d="M6.71729 19.221L10.344 22.0442C10.8119 22.5147 11.8649 22.75 12.5668 22.75H17.0124C18.4163 22.75 19.9372 21.6913 20.2882 20.2797L23.0959 11.6924C23.6809 10.0455 22.628 8.63388 20.8731 8.63388H16.1935C15.4916 8.63388 14.9066 8.0457 15.0236 7.22226L15.6085 3.45796C15.8425 2.39926 15.1406 1.22291 14.0877 0.870009C13.1518 0.517106 11.9818 0.987644 11.5139 1.69345L6.71729 8.86915" stroke="#868F97" stroke-width="1.5" stroke-miterlimit="10"/>
<path d="M0.75 19.2207V7.69257C0.75 6.04569 1.45194 5.45752 3.08981 5.45752H4.25971C5.89757 5.45752 6.59952 6.04569 6.59952 7.69257V19.2207C6.59952 20.8676 5.89757 21.4558 4.25971 21.4558H3.08981C1.45194 21.4558 0.75 20.8676 0.75 19.2207Z" stroke="#868F97" stroke-width="1.5" stroke-linecap="round" stroke-linejoin="round"/>
</svg>
