<svg width="22" height="18" viewBox="0 0 22 18" fill="none" xmlns="http://www.w3.org/2000/svg">
<path fill-rule="evenodd" clip-rule="evenodd" d="M2.46014 2.28738C1.88757 2.80824 1.49381 3.66136 1.49381 5.02433V10.0487C1.49381 11.0343 1.69999 11.7502 2.02238 12.262C2.33916 12.7649 2.79877 13.1202 3.40519 13.3426C3.59234 13.4091 3.78318 13.4625 3.97204 13.4921C3.98744 13.4945 4.00277 13.4974 4.01799 13.5007C4.35175 13.5743 4.7235 13.6096 5.12875 13.6096H13.8825C15.0826 13.6096 15.9685 13.3156 16.5511 12.7857C17.1237 12.2648 17.5175 11.4117 17.5175 10.0487V5.02433C17.5175 4.62342 17.4746 4.26986 17.4106 3.90993C17.2286 3.0189 16.8177 2.43583 16.265 2.06172C15.6945 1.6755 14.8999 1.46341 13.8825 1.46341H5.12875C3.92869 1.46341 3.04274 1.75742 2.46014 2.28738ZM1.44368 1.215C2.39473 0.349874 3.69971 0 5.12875 0H13.8825C15.0959 0 16.2184 0.251321 17.1142 0.857778C18.0264 1.47524 18.6304 2.41177 18.8775 3.63336L18.8806 3.64946C18.9552 4.06717 19.0113 4.51122 19.0113 5.02433V10.0487C19.0113 11.6906 18.5287 12.9838 17.5676 13.8581C16.6165 14.7232 15.3116 15.0731 13.8825 15.0731H5.12875C4.64566 15.0731 4.16869 15.0318 3.71255 14.9333C3.41341 14.8846 3.13544 14.8037 2.89172 14.7169L2.88573 14.7147L2.88574 14.7147C1.99984 14.3907 1.26041 13.839 0.751136 13.0305C0.246946 12.2301 0 11.229 0 10.0487V5.02433C0 3.38244 0.482615 2.08925 1.44368 1.215Z" fill="#868F97"/>
<path fill-rule="evenodd" clip-rule="evenodd" d="M17.6192 3.25693C17.7976 3.08301 18.0535 3.00885 18.2998 3.05965C19.3824 3.28293 20.3303 3.78339 21.0002 4.63329C21.667 5.47913 22 6.59668 22 7.95122V12.9756C22 14.6175 21.5174 15.9107 20.5563 16.7849C19.6053 17.6501 18.3003 17.9999 16.8712 17.9999H8.11748C7.31786 17.9999 6.55702 17.8947 5.87372 17.6413C4.43431 17.1189 3.45911 16.0172 3.12254 14.3572C3.0733 14.1144 3.15276 13.8636 3.3337 13.6908C3.51464 13.5179 3.77253 13.4464 4.01909 13.5008C4.35285 13.5744 4.7246 13.6097 5.12985 13.6097H13.8836C15.0837 13.6097 15.9696 13.3157 16.5522 12.7857C17.1248 12.2649 17.5186 11.4118 17.5186 10.0488V5.02441C17.5186 4.60782 17.4824 4.24802 17.4143 3.92269C17.3637 3.68113 17.4407 3.43085 17.6192 3.25693ZM19.0106 4.85245C19.0118 4.90924 19.0124 4.96655 19.0124 5.02441V10.0488C19.0124 11.6907 18.5298 12.9839 17.5687 13.8581C16.6176 14.7233 15.3127 15.0731 13.8836 15.0731H5.12985C5.06755 15.0731 5.00535 15.0724 4.94328 15.071C5.27224 15.661 5.76677 16.0423 6.39473 16.2698L6.4006 16.2719L6.40059 16.272C6.87176 16.447 7.44434 16.5365 8.11748 16.5365H16.8712C18.0713 16.5365 18.9572 16.2425 19.5399 15.7126C20.1124 15.1917 20.5062 14.3386 20.5062 12.9756V7.95122C20.5062 6.82773 20.2317 6.05262 19.8179 5.52774C19.6028 5.25486 19.3341 5.02934 19.0106 4.85245Z" fill="#868F97"/>
<path fill-rule="evenodd" clip-rule="evenodd" d="M9.49914 5.69729C8.45963 5.69729 7.61692 6.52285 7.61692 7.5412C7.61692 8.55956 8.45963 9.38511 9.49914 9.38511C10.5387 9.38511 11.3814 8.55956 11.3814 7.5412C11.3814 6.52285 10.5387 5.69729 9.49914 5.69729ZM6.12311 7.5412C6.12311 5.71463 7.63462 4.23389 9.49914 4.23389C11.3637 4.23389 12.8752 5.71463 12.8752 7.5412C12.8752 9.36778 11.3637 10.8485 9.49914 10.8485C7.63462 10.8485 6.12311 9.36778 6.12311 7.5412Z" fill="#868F97"/>
<path fill-rule="evenodd" clip-rule="evenodd" d="M3.80434 4.66357C4.21685 4.66357 4.55125 4.99117 4.55125 5.39528V9.68796C4.55125 10.0921 4.21685 10.4197 3.80434 10.4197C3.39184 10.4197 3.05743 10.0921 3.05743 9.68796V5.39528C3.05743 4.99117 3.39184 4.66357 3.80434 4.66357Z" fill="#868F97"/>
<path fill-rule="evenodd" clip-rule="evenodd" d="M15.1988 4.66357C15.6113 4.66357 15.9457 4.99117 15.9457 5.39528V9.68796C15.9457 10.0921 15.6113 10.4197 15.1988 10.4197C14.7862 10.4197 14.4518 10.0921 14.4518 9.68796V5.39528C14.4518 4.99117 14.7862 4.66357 15.1988 4.66357Z" fill="#868F97"/>
</svg>
