<svg width="22" height="18" viewBox="0 0 22 18" fill="none" xmlns="http://www.w3.org/2000/svg">
<path fill-rule="evenodd" clip-rule="evenodd" d="M2.46014 2.28738C1.88757 2.80824 1.49381 3.66136 1.49381 5.02433V10.0487C1.49381 11.0343 1.69999 11.7502 2.02238 12.262C2.33916 12.7649 2.79877 13.1202 3.40519 13.3426C3.59234 13.4091 3.78318 13.4625 3.97204 13.4921C3.98744 13.4945 4.00277 13.4974 4.01799 13.5007C4.35175 13.5743 4.7235 13.6096 5.12875 13.6096H13.8825C15.0826 13.6096 15.9685 13.3156 16.5511 12.7857C17.1237 12.2648 17.5175 11.4117 17.5175 10.0487V5.02433C17.5175 4.62342 17.4746 4.26986 17.4106 3.90993C17.2286 3.0189 16.8177 2.43583 16.265 2.06172C15.6945 1.6755 14.8999 1.46341 13.8825 1.46341H5.12875C3.92869 1.46341 3.04274 1.75742 2.46014 2.28738ZM1.44368 1.215C2.39473 0.349874 3.69971 0 5.12875 0H13.8825C15.0959 0 16.2184 0.251321 17.1142 0.857778C18.0264 1.47524 18.6304 2.41177 18.8775 3.63336L18.8806 3.64946C18.9552 4.06717 19.0113 4.51122 19.0113 5.02433V10.0487C19.0113 11.6906 18.5287 12.9838 17.5676 13.8581C16.6165 14.7232 15.3116 15.0731 13.8825 15.0731H5.12875C4.64566 15.0731 4.16869 15.0318 3.71255 14.9333C3.41341 14.8846 3.13544 14.8037 2.89172 14.7169L2.88573 14.7147L2.88574 14.7147C1.99984 14.3907 1.26041 13.839 0.751136 13.0305C0.246946 12.2301 0 11.229 0 10.0487V5.02433C0 3.38244 0.482615 2.08925 1.44368 1.215Z" fill="#041C84"/>
<path fill-rule="evenodd" clip-rule="evenodd" d="M17.6192 3.25693C17.7977 3.08301 18.0536 3.00885 18.2999 3.05965C19.3825 3.28293 20.3303 3.78339 21.0003 4.63329C21.6671 5.47913 22.0001 6.59668 22.0001 7.95122V12.9756C22.0001 14.6175 21.5174 15.9107 20.5564 16.7849C19.6053 17.6501 18.3003 17.9999 16.8713 17.9999H8.11754C7.31792 17.9999 6.55708 17.8947 5.87378 17.6413C4.43437 17.1189 3.45917 16.0172 3.1226 14.3572C3.07336 14.1144 3.15282 13.8636 3.33376 13.6908C3.5147 13.5179 3.77259 13.4464 4.01915 13.5008C4.35291 13.5744 4.72466 13.6097 5.12992 13.6097H13.8837C15.0837 13.6097 15.9697 13.3157 16.5523 12.7857C17.1249 12.2649 17.5186 11.4118 17.5186 10.0488V5.02441C17.5186 4.60782 17.4825 4.24802 17.4143 3.92269C17.3638 3.68113 17.4408 3.43085 17.6192 3.25693ZM19.0107 4.85245C19.0118 4.90924 19.0124 4.96655 19.0124 5.02441V10.0488C19.0124 11.6907 18.5298 12.9839 17.5687 13.8581C16.6177 14.7233 15.3127 15.0731 13.8837 15.0731H5.12992C5.06761 15.0731 5.00541 15.0724 4.94334 15.071C5.2723 15.661 5.76683 16.0423 6.39479 16.2698L6.40066 16.2719L6.40065 16.272C6.87182 16.447 7.44441 16.5365 8.11754 16.5365H16.8713C18.0714 16.5365 18.9573 16.2425 19.5399 15.7126C20.1125 15.1917 20.5062 14.3386 20.5062 12.9756V7.95122C20.5062 6.82773 20.2318 6.05262 19.818 5.52774C19.6029 5.25486 19.3342 5.02934 19.0107 4.85245Z" fill="#041C84"/>
<path fill-rule="evenodd" clip-rule="evenodd" d="M9.49908 5.69729C8.45957 5.69729 7.61686 6.52285 7.61686 7.5412C7.61686 8.55956 8.45957 9.38511 9.49908 9.38511C10.5386 9.38511 11.3813 8.55956 11.3813 7.5412C11.3813 6.52285 10.5386 5.69729 9.49908 5.69729ZM6.12305 7.5412C6.12305 5.71463 7.63456 4.23389 9.49908 4.23389C11.3636 4.23389 12.8751 5.71463 12.8751 7.5412C12.8751 9.36778 11.3636 10.8485 9.49908 10.8485C7.63456 10.8485 6.12305 9.36778 6.12305 7.5412Z" fill="#041C84"/>
<path fill-rule="evenodd" clip-rule="evenodd" d="M3.80428 4.66357C4.21679 4.66357 4.55119 4.99117 4.55119 5.39528V9.68796C4.55119 10.0921 4.21679 10.4197 3.80428 10.4197C3.39177 10.4197 3.05737 10.0921 3.05737 9.68796V5.39528C3.05737 4.99117 3.39177 4.66357 3.80428 4.66357Z" fill="#041C84"/>
<path fill-rule="evenodd" clip-rule="evenodd" d="M15.1988 4.66357C15.6113 4.66357 15.9457 4.99117 15.9457 5.39528V9.68796C15.9457 10.0921 15.6113 10.4197 15.1988 10.4197C14.7863 10.4197 14.4519 10.0921 14.4519 9.68796V5.39528C14.4519 4.99117 14.7863 4.66357 15.1988 4.66357Z" fill="#041C84"/>
</svg>
