<svg width="24" height="24" viewBox="0 0 24 24" fill="none" xmlns="http://www.w3.org/2000/svg">
<path fill-rule="evenodd" clip-rule="evenodd" d="M10.2573 6.55222C9.47563 6.55222 8.76708 7.20328 8.76708 8.09011C8.76708 8.69407 8.90259 8.97031 9.02255 9.11713C9.15095 9.27429 9.36688 9.4139 9.79199 9.55873L14.8413 11.2417C15.4037 11.4329 16.0137 11.7196 16.4642 12.271C16.9234 12.8331 17.1197 13.548 17.1197 14.4099C17.1197 16.2144 15.6493 17.75 13.7511 17.75H10.6079C8.50639 17.75 6.88867 16.0552 6.88867 14.0494C6.88867 13.5518 7.30917 13.1483 7.82787 13.1483C8.34658 13.1483 8.76708 13.5518 8.76708 14.0494C8.76708 15.1435 9.62886 15.9478 10.6079 15.9478H13.7511C14.5328 15.9478 15.2413 15.2967 15.2413 14.4099C15.2413 13.8059 15.1058 13.5297 14.9858 13.3829C14.8574 13.2257 14.6415 13.0861 14.2164 12.9413L9.16711 11.2583C8.60466 11.0671 7.99473 10.7804 7.54422 10.229C7.08501 9.66693 6.88867 8.95196 6.88867 8.09011C6.88867 6.28563 8.35906 4.75 10.2573 4.75H13.4005C15.502 4.75 17.1197 6.44478 17.1197 8.45055C17.1197 8.94822 16.6992 9.35166 16.1805 9.35166C15.6618 9.35166 15.2413 8.94822 15.2413 8.45055C15.2413 7.35651 14.3795 6.55222 13.4005 6.55222H10.2573Z" fill="#041C84"/>
<path fill-rule="evenodd" clip-rule="evenodd" d="M12.0042 2.75C12.5692 2.75 13.0273 3.14797 13.0273 3.63889V17.8611C13.0273 18.352 12.5692 18.75 12.0042 18.75C11.4391 18.75 10.9811 18.352 10.9811 17.8611V3.63889C10.9811 3.14797 11.4391 2.75 12.0042 2.75Z" fill="#041C84"/>
<ellipse cx="12.0042" cy="11.75" rx="11.2542" ry="11" stroke="#041C84" stroke-width="1.5"/>
</svg>
