<svg width="24" height="24" viewBox="0 0 24 24" fill="none" xmlns="http://www.w3.org/2000/svg">
<path d="M8.77026 10.6006C8.65257 10.5895 8.51135 10.5895 8.38189 10.6006C5.58089 10.5117 3.35657 8.34616 3.35657 5.68084C3.35657 2.95999 5.68681 0.75 8.58196 0.75C11.4653 0.75 13.8073 2.95999 13.8073 5.68084C13.7956 8.34616 11.5713 10.5117 8.77026 10.6006Z" stroke="#041C84" stroke-width="1.5" stroke-linecap="round" stroke-linejoin="round"/>
<path d="M17.3036 2.97119C19.5868 2.97119 21.4227 4.71476 21.4227 6.85812C21.4227 8.95706 19.6574 10.6673 17.4566 10.745C17.3625 10.7339 17.2566 10.7339 17.1506 10.745" stroke="#041C84" stroke-width="1.5" stroke-linecap="round" stroke-linejoin="round"/>
<path d="M2.88606 14.6985C0.0379815 16.4976 0.0379815 19.4295 2.88606 21.2175C6.1225 23.2609 11.4303 23.2609 14.6667 21.2175C17.5148 19.4184 17.5148 16.4865 14.6667 14.6985C11.442 12.6662 6.13427 12.6662 2.88606 14.6985Z" stroke="#041C84" stroke-width="1.5" stroke-linecap="round" stroke-linejoin="round"/>
<path d="M19.5746 20.74C20.4219 20.5734 21.2222 20.2513 21.8813 19.7738C23.7172 18.4744 23.7172 16.3311 21.8813 15.0317C21.234 14.5653 20.4455 14.2543 19.6099 14.0767" stroke="#041C84" stroke-width="1.5" stroke-linecap="round" stroke-linejoin="round"/>
</svg>
