<svg width="22" height="20" viewBox="0 0 22 20" fill="none" xmlns="http://www.w3.org/2000/svg">
<path fill-rule="evenodd" clip-rule="evenodd" d="M0 10.3599C0 9.94565 0.335786 9.60986 0.75 9.60986H17.75C18.1642 9.60986 18.5 9.94565 18.5 10.3599C18.5 10.7741 18.1642 11.1099 17.75 11.1099H0.75C0.335786 11.1099 0 10.7741 0 10.3599Z" fill="#041C84"/>
<path fill-rule="evenodd" clip-rule="evenodd" d="M3.78784 5.06888C2.65924 5.13633 2.19461 5.37081 1.94902 5.68066C1.66992 6.03281 1.5 6.68508 1.5 8.0298V15.0198C1.5 16.5128 1.70829 17.1468 2.0343 17.4685C2.36379 17.7936 3.01443 17.9998 4.53003 17.9998H13.97C15.46 17.9998 16.1141 17.802 16.4486 17.4873C16.7698 17.1851 16.9847 16.5921 17 15.1758V8.0298C17 6.53677 16.7917 5.90285 16.4657 5.58115C16.1362 5.25603 15.4856 5.0498 13.97 5.0498H4.53003C4.26934 5.0498 4.02492 5.05902 3.78784 5.06888ZM3.71878 3.57046C3.95963 3.56042 4.23314 3.5498 4.53003 3.5498H13.97C15.4744 3.5498 16.7137 3.71858 17.5193 4.51346C18.3283 5.31176 18.5 6.54284 18.5 8.0298V15.1877C18.4849 16.6186 18.2949 17.8098 17.4764 18.5798C16.6708 19.3377 15.45 19.4998 13.97 19.4998H4.53003C3.02563 19.4998 1.78626 19.331 0.980727 18.5362C0.171725 17.7379 0 16.5068 0 15.0198V8.0298C0 6.67453 0.14508 5.5418 0.773476 4.74895C1.43493 3.91439 2.46901 3.64417 3.70577 3.57111L3.71878 3.57046Z" fill="#041C84"/>
<path fill-rule="evenodd" clip-rule="evenodd" d="M4.53396 3.55H13.97C15.4744 3.55 16.7137 3.71878 17.5193 4.51365C18.3283 5.31195 18.5 6.54303 18.5 8.03V14.3397C19.0791 14.2292 19.3727 14.044 19.551 13.8191C19.8301 13.467 20 12.8147 20 11.47V4.48C20 2.98697 19.7917 2.35305 19.4657 2.03135C19.1362 1.70622 18.4856 1.5 16.97 1.5H7.53003C6.04005 1.5 5.38589 1.69785 5.05142 2.01251C4.79629 2.25253 4.6082 2.6761 4.53396 3.55ZM4.02361 0.919991C4.82916 0.162149 6.05001 0 7.53003 0H16.97C18.4744 0 19.7137 0.168776 20.5193 0.96365C21.3283 1.76195 21.5 2.99303 21.5 4.48V11.47C21.5 12.8253 21.3549 13.958 20.7265 14.7509C20.0651 15.5854 19.031 15.8556 17.7942 15.9287C17.588 15.9409 17.3859 15.8675 17.2355 15.7257C17.0852 15.584 17 15.3866 17 15.18V8.03C17 6.53696 16.7917 5.90305 16.4657 5.58135C16.1362 5.25622 15.4856 5.05 13.97 5.05H4.53003C4.26692 5.05 4.02037 5.05938 3.78122 5.06935C3.5757 5.07791 3.37568 5.00169 3.22798 4.85852C3.08029 4.71534 2.99788 4.51779 3.00004 4.31211C3.0151 2.88117 3.20507 1.69005 4.02361 0.919991Z" fill="#041C84"/>
<path fill-rule="evenodd" clip-rule="evenodd" d="M3.25 15.5601C3.25 15.1458 3.58579 14.8101 4 14.8101H5.71997C6.13418 14.8101 6.46997 15.1458 6.46997 15.5601C6.46997 15.9743 6.13418 16.3101 5.71997 16.3101H4C3.58579 16.3101 3.25 15.9743 3.25 15.5601Z" fill="#041C84"/>
<path fill-rule="evenodd" clip-rule="evenodd" d="M7.10986 15.5601C7.10986 15.1458 7.44565 14.8101 7.85986 14.8101H11.2999C11.7141 14.8101 12.0499 15.1458 12.0499 15.5601C12.0499 15.9743 11.7141 16.3101 11.2999 16.3101H7.85986C7.44565 16.3101 7.10986 15.9743 7.10986 15.5601Z" fill="#041C84"/>
</svg>
