<svg width="18" height="24" viewBox="0 0 18 24" fill="none" xmlns="http://www.w3.org/2000/svg">
<path d="M8.92865 10.6006C8.80863 10.5895 8.66462 10.5895 8.53261 10.6006C5.67631 10.5117 3.40808 8.34616 3.40808 5.68084C3.40808 2.95999 5.78432 0.75 8.73663 0.75C11.6769 0.75 14.0652 2.95999 14.0652 5.68084C14.0532 8.34616 11.7849 10.5117 8.92865 10.6006Z" stroke="#041C84" stroke-width="1.5" stroke-linecap="round" stroke-linejoin="round"/>
<path d="M2.92822 14.6985C0.0239257 16.4976 0.0239257 19.4295 2.92822 21.2174C6.22856 23.2609 11.6411 23.2609 14.9415 21.2174C17.8457 19.4184 17.8457 16.4865 14.9415 14.6985C11.6531 12.6662 6.24056 12.6662 2.92822 14.6985Z" stroke="#041C84" stroke-width="1.5" stroke-linecap="round" stroke-linejoin="round"/>
</svg>
